<svg width="33" height="33" viewBox="0 0 33 33" fill="none" xmlns="http://www.w3.org/2000/svg">
<path d="M31.667 15.167H1.33302C0.596836 15.167 0 15.7638 0 16.5C0 17.2363 0.596836 17.833 1.33302 17.833H31.667C32.4032 17.833 33 17.2363 33 16.5C33 15.7638 32.4032 15.167 31.667 15.167Z" fill="#EDEEF2"/>
<path d="M31.667 5.05566H1.33302C0.596836 5.05566 0 5.6525 0 6.38868C0 7.12487 0.596836 7.7217 1.33302 7.7217H31.667C32.4032 7.7217 33 7.12487 33 6.38868C33 5.6525 32.4032 5.05566 31.667 5.05566Z" fill="#EDEEF2"/>
<path d="M31.667 25.2783H1.33302C0.596836 25.2783 0 25.8751 0 26.6113C0 27.3476 0.596836 27.9444 1.33302 27.9444H31.667C32.4032 27.9444 33 27.3476 33 26.6113C33 25.8751 32.4032 25.2783 31.667 25.2783Z" fill="#EDEEF2"/>
</svg>
