<svg width="14" height="11" viewBox="0 0 14 11" fill="none" xmlns="http://www.w3.org/2000/svg">
<path d="M13.3018 10.3503H3.94002C3.55418 10.3503 3.24146 10.0375 3.24146 9.65169C3.24146 9.26585 3.55418 8.95312 3.94002 8.95312H13.3015C13.6874 8.95312 14.0001 9.26585 14.0001 9.65169C14.0001 10.0375 13.6876 10.3503 13.3018 10.3503Z" fill="#8C8C8C"/>
<path d="M13.3017 5.96745H3.93996C3.55412 5.96745 3.24139 5.65472 3.24139 5.26888C3.24139 4.88304 3.55412 4.57031 3.93996 4.57031H13.3015C13.6873 4.57031 14 4.88304 14 5.26888C14.0003 5.65472 13.6875 5.96745 13.3017 5.96745Z" fill="#8C8C8C"/>
<path d="M13.3018 1.58073H3.94002C3.55418 1.58073 3.24146 1.268 3.24146 0.882162C3.24146 0.496319 3.55418 0.183594 3.94002 0.183594H13.3015C13.6874 0.183594 14.0001 0.496319 14.0001 0.882162C14.0001 1.268 13.6876 1.58073 13.3018 1.58073Z" fill="#8C8C8C"/>
<path d="M0.938177 1.87635C1.45632 1.87635 1.87635 1.45632 1.87635 0.938177C1.87635 0.420036 1.45632 0 0.938177 0C0.420036 0 0 0.420036 0 0.938177C0 1.45632 0.420036 1.87635 0.938177 1.87635Z" fill="#8C8C8C"/>
<path d="M0.938177 6.20838C1.45632 6.20838 1.87635 5.78835 1.87635 5.27021C1.87635 4.75207 1.45632 4.33203 0.938177 4.33203C0.420036 4.33203 0 4.75207 0 5.27021C0 5.78835 0.420036 6.20838 0.938177 6.20838Z" fill="#8C8C8C"/>
<path d="M0.938177 10.5365C1.45632 10.5365 1.87635 10.1165 1.87635 9.59833C1.87635 9.08019 1.45632 8.66016 0.938177 8.66016C0.420036 8.66016 0 9.08019 0 9.59833C0 10.1165 0.420036 10.5365 0.938177 10.5365Z" fill="#8C8C8C"/>
</svg>
